<svg id="Capa_1" data-name="Capa 1" xmlns="http://www.w3.org/2000/svg" viewBox="0 0 385 192.49"><defs><style>.cls-1{fill:#0039e4;}</style></defs><title>menu</title><path class="cls-1" d="M12,24.06H372.94a12,12,0,1,0,0-24.06H12a12,12,0,0,0,0,24.06Z" transform="translate(0.03 0)"/><path class="cls-1" d="M372.94,84.22H12a12,12,0,0,0,0,24H372.94a12,12,0,0,0,0-24Z" transform="translate(0.03 0)"/><path class="cls-1" d="M372.94,168.43H132.33a12,12,0,0,0,0,24.06H372.94a12,12,0,1,0,0-24.06Z" transform="translate(0.03 0)"/></svg>